<svg
  xmlns="http://www.w3.org/2000/svg"
  xmlns:xlink="http://www.w3.org/1999/xlink"
  viewBox="0 0 385 180"
  width="385"
  height="180"
  preserveAspectRatio="xMidYMid meet"
  style="width: 100%; height: 100%; transform: translate3d(0px, 0px, 0px); content-visibility: visible;"
>
  <defs>
    <clipPath id="__lottie_element_4">
      <rect width="385" height="180" x="0" y="0"></rect>
    </clipPath>
  </defs>
  <g clip-path="url(#__lottie_element_4)">
    <g
      transform="matrix(1,0,0,1,192.5,79.5)"
      opacity="1"
      style="display: block;"
    >
      <g opacity="1" transform="matrix(1,0,0,1,0,0)">
        <path
          stroke-linecap="butt"
          stroke-linejoin="miter"
          fill-opacity="0"
          stroke-miterlimit="4"
          stroke-dasharray=" 10"
          stroke-dashoffset="0"
          stroke="rgb(255,255,255)"
          stroke-opacity="1"
          stroke-width="4"
          d=" M-291.5,33 C-291.5,33 -226.5,-18.5 -162.5,-18.5 C-98.5,-18.5 -66,64 -114,67.5 C-161.1719970703125,70.94000244140625 -140,-33 -55.5,-26 C29,-19 15,37.5 113.5,1.5"
        ></path>
      </g>
    </g>
    <g
      transform="matrix(0.940294623374939,-0.340361624956131,0.340361624956131,0.940294623374939,241.3268585205078,51.20338439941406)"
      opacity="1"
      style="display: block;"
    >
      <g
        opacity="1"
        transform="matrix(1,0,0,1,50.305999755859375,50.479000091552734)"
      >
        <path
          fill="rgb(255,255,255)"
          fill-opacity="1"
          d=" M47.3120002746582,5.367000102996826 C51.73400115966797,3.1559998989105225 51.73400115966797,-3.1559998989105225 47.3120002746582,-5.367000102996826 C47.3120002746582,-5.367000102996826 -41.608001708984375,-49.82600021362305 -41.608001708984375,-49.82600021362305 C-46.428001403808594,-52.236000061035156 -51.73400115966797,-47.56399917602539 -49.95399856567383,-42.47800064086914 C-49.95399856567383,-42.47800064086914 -36.779998779296875,-4.8379998207092285 -36.779998779296875,-4.8379998207092285 C-36.779998779296875,-4.8379998207092285 3.2980000972747803,-1.656000018119812 3.2980000972747803,-1.656000018119812 C5.754000186920166,-1.4609999656677246 5.754000186920166,2.135999917984009 3.2980000972747803,2.3310000896453857 C3.2980000972747803,2.3310000896453857 -37.02299880981445,5.5320000648498535 -37.02299880981445,5.5320000648498535 C-37.02299880981445,5.5320000648498535 -49.95399856567383,42.47800064086914 -49.95399856567383,42.47800064086914 C-51.73400115966797,47.56399917602539 -46.428001403808594,52.236000061035156 -41.608001708984375,49.82600021362305 C-41.608001708984375,49.82600021362305 47.3120002746582,5.367000102996826 47.3120002746582,5.367000102996826z"
        ></path>
      </g>
    </g>
  </g>
</svg>